# xmcd
#
# Track frame offsets: 
#        150
#        21050
#        31212
#        44123
#        55072
#        67289
#        81810
#        92863
#        108675
#        129940
#        144259
#        162408
#        174778
#        191918
#        206463
#        221031
#
# Disc length: 3302 seconds
#
# Revision: 4
# Processed by: cddbd v1.5.2PL0 Copyright (c) Steve Scherf et al.
# Submitted via: ExactAudioCopy v1.3
#
DISCID=e80ce410
DTITLE=The Gourds - Stadium Blitzer
DYEAR=1998
DGENRE=Country
TTITLE0=Lament
TTITLE1=Plaid Coat
TTITLE2=Magnolia
TTITLE3=Stadium Blitzer
TTITLE4=LGO
TTITLE5=Boil my Strings
TTITLE6=Coppermine
TTITLE7=Maria
TTITLE8=Raining in Port Arthur
TTITLE9=Dyin' Diamond
TTITLE10=When the Money Comes Rolling In
TTITLE11=I Ate the Haggis
TTITLE12=Cold Bed
TTITLE13=Pushed Her Down
TTITLE14=Pine Island Bayou
TTITLE15=I Like Drinking
EXTD=
EXTT0=
EXTT1=
EXTT2=
EXTT3=
EXTT4=
EXTT5=
EXTT6=
EXTT7=
EXTT8=
EXTT9=
EXTT10=
EXTT11=
EXTT12=
EXTT13=
EXTT14=
EXTT15=
PLAYORDER=
